<svg width="93" height="128" viewBox="0 0 93 128" version="1.1" xmlns="http://www.w3.org/2000/svg"><g id="Desktop" stroke="none" stroke-width="1" fill="none" fill-rule="evenodd"><g id="01-Home" transform="translate(-673 -2771)"><g id="Metodos" transform="translate(180 2639)"><g id="Logo-NEQUI" transform="translate(493.5 132)"><g id="Group" transform="translate(0 107.88)" fill="#210049" fill-rule="nonzero"><path d="M91.84.835a.566.566 0 0 0-.547-.547h-1.836a.546.546 0 0 0-.547.547v18.08c0 .289.26.547.547.547h1.836a.546.546 0 0 0 .546-.546V.835z" id="XMLID_61_"/><path d="M16.416.293h-1.772a.545.545 0 0 0-.537.551l-.01 12.687L2.04.551S1.85.294 1.503.294C1.181.293.888.288.888.288A.539.539 0 0 0 .351.81v18.086c0 .288.245.552.528.552h1.8a.545.545 0 0 0 .538-.552l-.02-13.009L15.64 19.218s.24.23.38.23h.386a.539.539 0 0 0 .537-.523l.015-.327V.835c-.005-.279-.259-.542-.542-.542z" id="XMLID_60_"/><path d="M33.911 19.457h.757a.546.546 0 0 0 .547-.546v-1.64a.546.546 0 0 0-.547-.547h-4.974v.005H27.53v-5.95h7.152a.546.546 0 0 0 .546-.548v-1.64a.546.546 0 0 0-.546-.546H27.53V3.017h7.137a.546.546 0 0 0 .547-.547V.83a.546.546 0 0 0-.547-.547h-9.5a.546.546 0 0 0-.546.547V18.9a.55.55 0 0 0 .537.548l8.752.01z" id="XMLID_59_"/><path d="M81.247.83a.555.555 0 0 0-.537-.537h-1.802a.535.535 0 0 0-.537.537l.01 10.773c0 1.67-.141 2.456-.59 3.246-.679 1.157-2.036 1.919-3.505 1.919-1.499 0-2.856-.762-3.535-1.919-.449-.79-.59-1.581-.59-3.246L70.17.83a.555.555 0 0 0-.537-.537h-1.802a.535.535 0 0 0-.537.537l.01 11.535c0 1.835.45 3.192 1.44 4.432a7.12 7.12 0 0 0 5.536 2.656 7.105 7.105 0 0 0 5.506-2.656c.991-1.245 1.44-2.626 1.44-4.432L81.247.83z" id="XMLID_57_"/><g id="XMLID_49_" transform="translate(41.492)"><path d="M14.864 17.964a9.701 9.701 0 0 1-5.145 1.493c-2.71 0-5.448-1.215-7.298-3.29C.898 14.507.127 12.326.127 9.943c0-5.335 4.286-9.65 9.621-9.65 5.365 0 9.65 4.369 9.65 9.816 0 2.52-.8 4.423-2.625 6.332m-1.938-1.963c1.244-1.327 1.772-2.655 1.772-4.564 0-3.954-2.988-6.995-6.888-6.995-3.925 0-6.8 2.988-6.8 7.054 0 2.016.664 3.622 1.992 4.896 1.298 1.245 3.012 1.962 4.7 1.962 1.133 0 2.378-.302 3.29-.83" id="XMLID_52_"/><path d="M19.008 18.662c.445.439.298.795-.327.795h-1.913c-.254 0-.61-.146-.796-.327l-6.253-6.175a.662.662 0 0 1 .464-1.132h1.43c.254 0 .61.146.796.327l6.6 6.512z" id="XMLID_50_"/></g></g><g id="Group"><path d="M9.67 20.946L48.956.82c2.372-1.215 5.31-.683 7.054 1.27l33.764 37.904c2.046 2.294 2.007 5.672-.092 7.922l-36.499 39.13c-3.539 3.441-9.46 3.085-12.52-.747L5.286 38.695C.854 32.725 2.904 24.412 9.67 20.946" id="XMLID_48_" fill="#FF2F73"/><path d="M2.397 39.505l25.569-34.79c1.542-2.099 4.417-2.884 6.897-1.884l48.082 19.394c2.91 1.177 4.472 4.208 3.661 7.112L72.52 79.904c-1.533 4.589-6.99 6.81-11.535 4.696L6.878 57.235C.093 53.803-2.006 45.5 2.397 39.505" id="XMLID_47_" fill="#2FCAD7"/><path d="M40.545 5.106L19.872 15.694 4.237 36.972c.298.58.635 1.157 1.04 1.704L26.394 67.09 57.22 82.682l20.688-22.177 7.18-25.783-16.201-18.184L40.545 5.106z" id="XMLID_34_" fill="#210049"/></g></g></g></g></g></svg>